<svg width="135" height="90" viewBox="0 0 135 90" fill="none" xmlns="http://www.w3.org/2000/svg">
<path d="M7.29 14.81C7.33 15.83 7.65 16.65 8.25 17.27C8.87 17.89 9.78 18.2 10.98 18.2C11.64 18.2 12.23 18.08 12.75 17.84C13.27 17.58 13.75 17.2 14.19 16.7C15.89 17.36 17.88 17.93 20.16 18.41C19.5 19.95 18.38 21.15 16.8 22.01C15.24 22.87 13.21 23.3 10.71 23.3C7.37 23.3 4.9 22.52 3.3 20.96C1.7 19.4 0.9 17.35 0.9 14.81C0.9 12.27 1.7 10.22 3.3 8.66C4.9 7.1 7.37 6.32 10.71 6.32C13.21 6.32 15.24 6.75 16.8 7.61C18.38 8.47 19.5 9.67 20.16 11.21C18.38 11.59 16.39 12.16 14.19 12.92C13.75 12.42 13.27 12.05 12.75 11.81C12.23 11.55 11.64 11.42 10.98 11.42C9.78 11.42 8.87 11.73 8.25 12.35C7.65 12.97 7.33 13.79 7.29 14.81ZM41.6409 18.02C41.6409 18.7 41.7209 19.18 41.8809 19.46C42.0409 19.74 42.3609 19.94 42.8409 20.06L42.7209 22.88C42.0809 22.98 41.5209 23.05 41.0409 23.09C40.5809 23.13 39.9609 23.15 39.1809 23.15C37.4609 23.15 36.3209 22.77 35.7609 22.01C35.2009 21.23 34.9209 20.24 34.9209 19.04V18.29C34.3409 19.93 33.4909 21.15 32.3709 21.95C31.2709 22.75 29.8609 23.15 28.1409 23.15C26.1409 23.15 24.6309 22.75 23.6109 21.95C22.6109 21.15 22.1109 19.96 22.1109 18.38C22.1109 17.08 22.5409 16.06 23.4009 15.32C24.2609 14.58 25.5909 14.07 27.3909 13.79C25.8709 12.71 24.3509 11.77 22.8309 10.97C24.0309 9.45 25.4009 8.3 26.9409 7.52C28.4809 6.72 30.3509 6.32 32.5509 6.32C35.6309 6.32 37.9109 6.99 39.3909 8.33C40.8909 9.65 41.6409 11.69 41.6409 14.45V18.02ZM33.1809 11.6C32.1609 11.6 31.2609 11.77 30.4809 12.11C29.7009 12.45 29.0009 12.96 28.3809 13.64C29.5809 13.5 31.0809 13.43 32.8809 13.43C33.6209 13.43 34.1409 13.34 34.4409 13.16C34.7409 12.98 34.8909 12.75 34.8909 12.47C34.8909 12.23 34.7409 12.03 34.4409 11.87C34.1409 11.69 33.7209 11.6 33.1809 11.6ZM30.0309 18.26C31.1509 18.26 32.1609 18.05 33.0609 17.63C33.9609 17.19 34.5809 16.62 34.9209 15.92V15.14C34.4409 15.38 33.9109 15.57 33.3309 15.71C32.7509 15.83 32.0509 15.95 31.2309 16.07L30.1509 16.25C29.0309 16.47 28.4709 16.85 28.4709 17.39C28.4709 17.97 28.9909 18.26 30.0309 18.26ZM63.4273 6.62C63.3273 9.52 63.2773 12.14 63.2773 14.48C63.2773 16.78 63.3273 19.4 63.4273 22.34H57.2773L57.6073 11.96L53.0173 22.34H44.6473C44.7673 19.7 44.8273 17.08 44.8273 14.48C44.8273 11.84 44.7673 9.22 44.6473 6.62H50.5573L50.2573 17.27L54.8473 6.62H63.4273ZM53.7373 5.9C52.7973 5.9 51.9273 5.69 51.1273 5.27C50.3473 4.85 49.7273 4.25 49.2673 3.47C48.8073 2.69 48.5773 1.78 48.5773 0.739999H51.5473C51.5473 1.52 51.7473 2.1 52.1473 2.48C52.5673 2.84 53.0973 3.02 53.7373 3.02C54.3773 3.02 54.8973 2.84 55.2973 2.48C55.7173 2.1 55.9273 1.52 55.9273 0.739999H58.8973C58.8973 1.78 58.6673 2.69 58.2073 3.47C57.7473 4.25 57.1173 4.85 56.3173 5.27C55.5373 5.69 54.6773 5.9 53.7373 5.9ZM84.0389 12.26C81.0389 12.18 78.8589 12.13 77.4989 12.11V23H71.1389V12.11C69.7989 12.13 67.6289 12.18 64.6289 12.26V6.62H84.0389V12.26ZM7.29 44.81C7.33 45.83 7.65 46.65 8.25 47.27C8.87 47.89 9.78 48.2 10.98 48.2C11.64 48.2 12.23 48.08 12.75 47.84C13.27 47.58 13.75 47.2 14.19 46.7C15.89 47.36 17.88 47.93 20.16 48.41C19.5 49.95 18.38 51.15 16.8 52.01C15.24 52.87 13.21 53.3 10.71 53.3C7.37 53.3 4.9 52.52 3.3 50.96C1.7 49.4 0.9 47.35 0.9 44.81C0.9 42.27 1.7 40.22 3.3 38.66C4.9 37.1 7.37 36.32 10.71 36.32C13.21 36.32 15.24 36.75 16.8 37.61C18.38 38.47 19.5 39.67 20.16 41.21C18.38 41.59 16.39 42.16 14.19 42.92C13.75 42.42 13.27 42.05 12.75 41.81C12.23 41.55 11.64 41.42 10.98 41.42C9.78 41.42 8.87 41.73 8.25 42.35C7.65 42.97 7.33 43.79 7.29 44.81ZM41.6409 48.02C41.6409 48.7 41.7209 49.18 41.8809 49.46C42.0409 49.74 42.3609 49.94 42.8409 50.06L42.7209 52.88C42.0809 52.98 41.5209 53.05 41.0409 53.09C40.5809 53.13 39.9609 53.15 39.1809 53.15C37.4609 53.15 36.3209 52.77 35.7609 52.01C35.2009 51.23 34.9209 50.24 34.9209 49.04V48.29C34.3409 49.93 33.4909 51.15 32.3709 51.95C31.2709 52.75 29.8609 53.15 28.1409 53.15C26.1409 53.15 24.6309 52.75 23.6109 51.95C22.6109 51.15 22.1109 49.96 22.1109 48.38C22.1109 47.08 22.5409 46.06 23.4009 45.32C24.2609 44.58 25.5909 44.07 27.3909 43.79C25.8709 42.71 24.3509 41.77 22.8309 40.97C24.0309 39.45 25.4009 38.3 26.9409 37.52C28.4809 36.72 30.3509 36.32 32.5509 36.32C35.6309 36.32 37.9109 36.99 39.3909 38.33C40.8909 39.65 41.6409 41.69 41.6409 44.45V48.02ZM33.1809 41.6C32.1609 41.6 31.2609 41.77 30.4809 42.11C29.7009 42.45 29.0009 42.96 28.3809 43.64C29.5809 43.5 31.0809 43.43 32.8809 43.43C33.6209 43.43 34.1409 43.34 34.4409 43.16C34.7409 42.98 34.8909 42.75 34.8909 42.47C34.8909 42.23 34.7409 42.03 34.4409 41.87C34.1409 41.69 33.7209 41.6 33.1809 41.6ZM30.0309 48.26C31.1509 48.26 32.1609 48.05 33.0609 47.63C33.9609 47.19 34.5809 46.62 34.9209 45.92V45.14C34.4409 45.38 33.9109 45.57 33.3309 45.71C32.7509 45.83 32.0509 45.95 31.2309 46.07L30.1509 46.25C29.0309 46.47 28.4709 46.85 28.4709 47.39C28.4709 47.97 28.9909 48.26 30.0309 48.26ZM67.5373 36.62L68.6773 53H62.8573L62.4973 41.27L60.2173 53H53.1073L50.7973 41.42L50.4673 53H44.6473L45.7873 36.62H54.6673L56.6173 47.33L58.3573 36.62H67.5373ZM89.853 36.62C89.753 39.52 89.703 42.14 89.703 44.48C89.703 46.78 89.753 49.4 89.853 52.34H83.703L84.033 41.96L79.443 52.34H71.073C71.193 49.7 71.253 47.08 71.253 44.48C71.253 41.84 71.193 39.22 71.073 36.62H76.983L76.683 47.27L81.273 36.62H89.853ZM105.365 36.32C106.665 36.32 107.835 36.69 108.875 37.43C109.915 38.17 110.725 39.18 111.305 40.46C111.885 41.72 112.175 43.11 112.175 44.63C112.175 46.13 111.885 47.55 111.305 48.89C110.725 50.21 109.905 51.28 108.845 52.1C107.805 52.9 106.615 53.3 105.275 53.3C103.715 53.3 102.375 52.98 101.255 52.34C100.155 51.68 99.3347 50.67 98.7947 49.31C98.7947 50.45 98.8347 52.28 98.9147 54.8C98.9947 57.24 99.0347 58.96 99.0347 59.96H92.2547C92.3747 56.24 92.4347 52.35 92.4347 48.29C92.4347 44.23 92.3747 40.34 92.2547 36.62H98.0147L98.8847 40.37C99.4447 38.97 100.285 37.95 101.405 37.31C102.525 36.65 103.845 36.32 105.365 36.32ZM102.155 47.9C103.055 47.9 103.805 47.62 104.405 47.06C105.025 46.48 105.335 45.73 105.335 44.81C105.335 43.79 105.055 42.96 104.495 42.32C103.935 41.68 103.175 41.36 102.215 41.36C101.115 41.36 100.285 41.63 99.7247 42.17C99.1647 42.69 98.8847 43.57 98.8847 44.81C98.8847 45.51 99.0647 46.1 99.4247 46.58C99.7847 47.04 100.215 47.38 100.715 47.6C101.215 47.8 101.695 47.9 102.155 47.9ZM133.516 48.02C133.516 48.7 133.596 49.18 133.756 49.46C133.916 49.74 134.236 49.94 134.716 50.06L134.596 52.88C133.956 52.98 133.396 53.05 132.916 53.09C132.456 53.13 131.836 53.15 131.056 53.15C129.336 53.15 128.196 52.77 127.636 52.01C127.076 51.23 126.796 50.24 126.796 49.04V48.29C126.216 49.93 125.366 51.15 124.246 51.95C123.146 52.75 121.736 53.15 120.016 53.15C118.016 53.15 116.506 52.75 115.486 51.95C114.486 51.15 113.986 49.96 113.986 48.38C113.986 47.08 114.416 46.06 115.276 45.32C116.136 44.58 117.466 44.07 119.266 43.79C117.746 42.71 116.226 41.77 114.706 40.97C115.906 39.45 117.276 38.3 118.816 37.52C120.356 36.72 122.226 36.32 124.426 36.32C127.506 36.32 129.786 36.99 131.266 38.33C132.766 39.65 133.516 41.69 133.516 44.45V48.02ZM125.056 41.6C124.036 41.6 123.136 41.77 122.356 42.11C121.576 42.45 120.876 42.96 120.256 43.64C121.456 43.5 122.956 43.43 124.756 43.43C125.496 43.43 126.016 43.34 126.316 43.16C126.616 42.98 126.766 42.75 126.766 42.47C126.766 42.23 126.616 42.03 126.316 41.87C126.016 41.69 125.596 41.6 125.056 41.6ZM121.906 48.26C123.026 48.26 124.036 48.05 124.936 47.63C125.836 47.19 126.456 46.62 126.796 45.92V45.14C126.316 45.38 125.786 45.57 125.206 45.71C124.626 45.83 123.926 45.95 123.106 46.07L122.026 46.25C120.906 46.47 120.346 46.85 120.346 47.39C120.346 47.97 120.866 48.26 121.906 48.26ZM14.19 74.6L20.49 83H13.05C12.67 82.24 11.97 81.13 10.95 79.67L10.26 78.68C10.14 78.86 10 79.05 9.84 79.25C9.7 79.45 9.56 79.67 9.42 79.91C9.02 80.47 8.64 81.02 8.28 81.56C7.94 82.1 7.66 82.58 7.44 83H0L6.3 74.6L0.24 66.62H7.65C7.93 67.18 8.47 68.05 9.27 69.23L10.26 70.73L11.1 69.44C11.94 68.18 12.52 67.24 12.84 66.62H20.25L14.19 74.6ZM40.9085 78.02C40.9085 78.7 40.9885 79.18 41.1485 79.46C41.3085 79.74 41.6285 79.94 42.1085 80.06L41.9885 82.88C41.3485 82.98 40.7885 83.05 40.3085 83.09C39.8485 83.13 39.2285 83.15 38.4485 83.15C36.7285 83.15 35.5885 82.77 35.0285 82.01C34.4685 81.23 34.1885 80.24 34.1885 79.04V78.29C33.6085 79.93 32.7585 81.15 31.6385 81.95C30.5385 82.75 29.1285 83.15 27.4085 83.15C25.4085 83.15 23.8985 82.75 22.8785 81.95C21.8785 81.15 21.3785 79.96 21.3785 78.38C21.3785 77.08 21.8085 76.06 22.6685 75.32C23.5285 74.58 24.8585 74.07 26.6585 73.79C25.1385 72.71 23.6185 71.77 22.0985 70.97C23.2985 69.45 24.6685 68.3 26.2085 67.52C27.7485 66.72 29.6185 66.32 31.8185 66.32C34.8985 66.32 37.1785 66.99 38.6585 68.33C40.1585 69.65 40.9085 71.69 40.9085 74.45V78.02ZM32.4485 71.6C31.4285 71.6 30.5285 71.77 29.7485 72.11C28.9685 72.45 28.2685 72.96 27.6485 73.64C28.8485 73.5 30.3485 73.43 32.1485 73.43C32.8885 73.43 33.4085 73.34 33.7085 73.16C34.0085 72.98 34.1585 72.75 34.1585 72.47C34.1585 72.23 34.0085 72.03 33.7085 71.87C33.4085 71.69 32.9885 71.6 32.4485 71.6ZM29.2985 78.26C30.4185 78.26 31.4285 78.05 32.3285 77.63C33.2285 77.19 33.8485 76.62 34.1885 75.92V75.14C33.7085 75.38 33.1785 75.57 32.5985 75.71C32.0185 75.83 31.3185 75.95 30.4985 76.07L29.4185 76.25C28.2985 76.47 27.7385 76.85 27.7385 77.39C27.7385 77.97 28.2585 78.26 29.2985 78.26ZM57.1448 74.87C60.5648 74.87 62.2748 75.96 62.2748 78.14C62.2748 79.7 61.6748 80.9 60.4748 81.74C59.2948 82.58 57.1548 83 54.0548 83H43.9148C44.0148 80.72 44.0648 77.99 44.0648 74.81C44.0648 71.63 44.0148 68.9 43.9148 66.62H50.1248V66.65H54.0248C55.9048 66.65 57.3748 66.81 58.4348 67.13C59.5148 67.43 60.2748 67.87 60.7148 68.45C61.1548 69.03 61.3748 69.77 61.3748 70.67C61.3748 72.69 59.9648 74.09 57.1448 74.87ZM50.1248 70.76V72.86H52.4048C53.3248 72.86 53.9748 72.78 54.3548 72.62C54.7348 72.44 54.9248 72.13 54.9248 71.69C54.9248 71.35 54.7248 71.11 54.3248 70.97C53.9448 70.83 53.3048 70.76 52.4048 70.76H50.1248ZM52.4048 78.86C53.5448 78.86 54.3248 78.78 54.7448 78.62C55.1648 78.44 55.3748 78.13 55.3748 77.69C55.3748 77.31 55.1548 77.03 54.7148 76.85C54.2748 76.67 53.5048 76.58 52.4048 76.58H50.1248V78.86H52.4048ZM83.5941 78.02C83.5941 78.7 83.6741 79.18 83.8341 79.46C83.9941 79.74 84.3141 79.94 84.7941 80.06L84.6741 82.88C84.0341 82.98 83.4741 83.05 82.9941 83.09C82.5341 83.13 81.9141 83.15 81.1341 83.15C79.4141 83.15 78.2741 82.77 77.7141 82.01C77.1541 81.23 76.8741 80.24 76.8741 79.04V78.29C76.2941 79.93 75.4441 81.15 74.3241 81.95C73.2241 82.75 71.8141 83.15 70.0941 83.15C68.0941 83.15 66.5841 82.75 65.5641 81.95C64.5641 81.15 64.0641 79.96 64.0641 78.38C64.0641 77.08 64.4941 76.06 65.3541 75.32C66.2141 74.58 67.5441 74.07 69.3441 73.79C67.8241 72.71 66.3041 71.77 64.7841 70.97C65.9841 69.45 67.3541 68.3 68.8941 67.52C70.4341 66.72 72.3041 66.32 74.5041 66.32C77.5841 66.32 79.8641 66.99 81.3441 68.33C82.8441 69.65 83.5941 71.69 83.5941 74.45V78.02ZM75.1341 71.6C74.1141 71.6 73.2141 71.77 72.4341 72.11C71.6541 72.45 70.9541 72.96 70.3341 73.64C71.5341 73.5 73.0341 73.43 74.8341 73.43C75.5741 73.43 76.0941 73.34 76.3941 73.16C76.6941 72.98 76.8441 72.75 76.8441 72.47C76.8441 72.23 76.6941 72.03 76.3941 71.87C76.0941 71.69 75.6741 71.6 75.1341 71.6ZM71.9841 78.26C73.1041 78.26 74.1141 78.05 75.0141 77.63C75.9141 77.19 76.5341 76.62 76.8741 75.92V75.14C76.3941 75.38 75.8641 75.57 75.2841 75.71C74.7041 75.83 74.0041 75.95 73.1841 76.07L72.1041 76.25C70.9841 76.47 70.4241 76.85 70.4241 77.39C70.4241 77.97 70.9441 78.26 71.9841 78.26ZM99.7104 66.32C101.01 66.32 102.18 66.69 103.22 67.43C104.26 68.17 105.07 69.18 105.65 70.46C106.23 71.72 106.52 73.11 106.52 74.63C106.52 76.13 106.23 77.55 105.65 78.89C105.07 80.21 104.25 81.28 103.19 82.1C102.15 82.9 100.96 83.3 99.6204 83.3C98.0604 83.3 96.7204 82.98 95.6004 82.34C94.5004 81.68 93.6804 80.67 93.1404 79.31C93.1404 80.45 93.1804 82.28 93.2604 84.8C93.3404 87.24 93.3804 88.96 93.3804 89.96H86.6004C86.7204 86.24 86.7804 82.35 86.7804 78.29C86.7804 74.23 86.7204 70.34 86.6004 66.62H92.3604L93.2304 70.37C93.7904 68.97 94.6304 67.95 95.7504 67.31C96.8704 66.65 98.1904 66.32 99.7104 66.32ZM96.5004 77.9C97.4004 77.9 98.1504 77.62 98.7504 77.06C99.3704 76.48 99.6804 75.73 99.6804 74.81C99.6804 73.79 99.4004 72.96 98.8404 72.32C98.2804 71.68 97.5204 71.36 96.5604 71.36C95.4604 71.36 94.6304 71.63 94.0704 72.17C93.5104 72.69 93.2304 73.57 93.2304 74.81C93.2304 75.51 93.4104 76.1 93.7704 76.58C94.1304 77.04 94.5604 77.38 95.0604 77.6C95.5604 77.8 96.0404 77.9 96.5004 77.9ZM127.412 66.62C127.312 69.52 127.262 72.14 127.262 74.48C127.262 76.78 127.312 79.4 127.412 82.34H121.262L121.592 71.96L117.002 82.34H108.632C108.752 79.7 108.812 77.08 108.812 74.48C108.812 71.84 108.752 69.22 108.632 66.62H114.542L114.242 77.27L118.832 66.62H127.412Z" fill="#FF9315"/>
</svg>
