<svg width="591" height="199" viewBox="0 0 591 199" fill="none" xmlns="http://www.w3.org/2000/svg">
<path d="M60.651 38.718H63.48V62.385H47.127V52.38H16.353V62.592H0V38.718H3.45C5.428 38.35 6.946 37.545 8.004 36.303C9.062 35.061 9.844 33.083 10.35 30.369C10.764 28.115 10.971 22.986 10.971 14.982L10.902 0.905999L60.651 0.974998V38.718ZM26.427 35.751C26.151 37.039 25.898 38.028 25.668 38.718H43.194V14.43H27.738L27.669 18.432C27.669 21.928 27.577 25.01 27.393 27.678C27.255 30.3 26.933 32.991 26.427 35.751ZM105.498 33.75H83.0043C83.3723 35.774 84.2693 37.43 85.6953 38.718C87.1673 39.96 89.2373 40.581 91.9053 40.581C93.8373 40.581 95.6543 40.213 97.3563 39.477C99.0583 38.695 100.415 37.614 101.427 36.234C104.509 37.752 108.603 39.385 113.709 41.133C112.283 44.353 109.684 46.929 105.912 48.861C102.186 50.747 97.3103 51.69 91.2843 51.69C83.4643 51.69 77.6683 49.896 73.8963 46.308C70.1703 42.674 68.3073 37.913 68.3073 32.025C68.3073 26.275 70.1703 21.606 73.8963 18.018C77.6223 14.43 83.4183 12.636 91.2843 12.636C95.9763 12.636 100.047 13.418 103.497 14.982C106.947 16.546 109.592 18.731 111.432 21.537C113.272 24.297 114.192 27.471 114.192 31.059C114.192 32.255 114.146 33.152 114.054 33.75H105.498ZM92.2503 23.055C89.9503 23.055 88.0643 23.492 86.5923 24.366C85.1203 25.24 84.0853 26.436 83.4873 27.954H99.7713C99.2193 26.482 98.3223 25.309 97.0803 24.435C95.8383 23.515 94.2283 23.055 92.2503 23.055ZM161.982 51.345H146.871V26.367H137.073L137.004 28.506C136.958 30.714 136.866 32.669 136.728 34.371C136.636 36.027 136.406 37.821 136.038 39.753C134.474 48.171 128.103 52.38 116.925 52.38V41.409C119.087 41.133 120.559 40.466 121.341 39.408C122.123 38.304 122.514 36.602 122.514 34.302V13.326L161.982 13.395V51.345ZM204.978 12.636C211.602 12.636 216.455 14.361 219.537 17.811C222.665 21.261 224.229 26.045 224.229 32.163C224.229 38.373 222.688 43.18 219.606 46.584C216.524 49.988 211.648 51.69 204.978 51.69C199.412 51.69 195.088 50.471 192.006 48.033C188.924 45.549 186.969 42.03 186.141 37.476H181.794V41.271C181.794 43.755 181.84 47.067 181.932 51.207H167.511C167.603 43.295 167.649 36.878 167.649 31.956C167.649 26.988 167.603 20.778 167.511 13.326H181.932C181.84 18.57 181.794 22.986 181.794 26.574H186.21C187.038 22.158 188.993 18.731 192.075 16.293C195.157 13.855 199.458 12.636 204.978 12.636ZM204.978 40.788C206.91 40.788 208.451 40.052 209.601 38.58C210.751 37.108 211.326 34.969 211.326 32.163C211.326 29.403 210.751 27.287 209.601 25.815C208.451 24.343 206.91 23.607 204.978 23.607C203 23.607 201.436 24.343 200.286 25.815C199.182 27.287 198.63 29.403 198.63 32.163C198.63 34.969 199.205 37.108 200.355 38.58C201.505 40.052 203.046 40.788 204.978 40.788ZM243.78 32.163C243.872 34.509 244.608 36.395 245.988 37.821C247.414 39.247 249.507 39.96 252.267 39.96C253.785 39.96 255.142 39.684 256.338 39.132C257.534 38.534 258.638 37.66 259.65 36.51C263.56 38.028 268.137 39.339 273.381 40.443C271.863 43.985 269.287 46.745 265.653 48.723C262.065 50.701 257.396 51.69 251.646 51.69C243.964 51.69 238.283 49.896 234.603 46.308C230.923 42.72 229.083 38.005 229.083 32.163C229.083 26.321 230.923 21.606 234.603 18.018C238.283 14.43 243.964 12.636 251.646 12.636C257.396 12.636 262.065 13.625 265.653 15.603C269.287 17.581 271.863 20.341 273.381 23.883C269.287 24.757 264.71 26.068 259.65 27.816C258.638 26.666 257.534 25.815 256.338 25.263C255.142 24.665 253.785 24.366 252.267 24.366C249.507 24.366 247.414 25.079 245.988 26.505C244.608 27.931 243.872 29.817 243.78 32.163ZM302.501 21.744C309.355 21.744 314.139 23.101 316.853 25.815C319.567 28.483 320.924 32.209 320.924 36.993C320.924 41.455 319.567 44.905 316.853 47.343C314.185 49.735 309.401 50.931 302.501 50.931H293.324V51H278.558C278.788 45.756 278.903 39.477 278.903 32.163C278.903 24.849 278.788 18.57 278.558 13.326H293.324V21.744H302.501ZM298.361 39.96C301.627 39.96 303.904 39.707 305.192 39.201C306.48 38.695 307.124 37.706 307.124 36.234C307.124 34.762 306.457 33.773 305.123 33.267C303.789 32.715 301.535 32.439 298.361 32.439L293.324 32.508V39.96H298.361ZM353.546 32.163C353.638 34.509 354.374 36.395 355.754 37.821C357.18 39.247 359.273 39.96 362.033 39.96C363.551 39.96 364.908 39.684 366.104 39.132C367.3 38.534 368.404 37.66 369.416 36.51C373.326 38.028 377.903 39.339 383.147 40.443C381.629 43.985 379.053 46.745 375.419 48.723C371.831 50.701 367.162 51.69 361.412 51.69C353.73 51.69 348.049 49.896 344.369 46.308C340.689 42.72 338.849 38.005 338.849 32.163C338.849 26.321 340.689 21.606 344.369 18.018C348.049 14.43 353.73 12.636 361.412 12.636C367.162 12.636 371.831 13.625 375.419 15.603C379.053 17.581 381.629 20.341 383.147 23.883C379.053 24.757 374.476 26.068 369.416 27.816C368.404 26.666 367.3 25.815 366.104 25.263C364.908 24.665 363.551 24.366 362.033 24.366C359.273 24.366 357.18 25.079 355.754 26.505C354.374 27.931 353.638 29.817 353.546 32.163ZM418.753 32.301C426.619 32.301 430.552 34.808 430.552 39.822C430.552 43.41 429.172 46.17 426.412 48.102C423.698 50.034 418.776 51 411.646 51H388.324C388.554 45.756 388.669 39.477 388.669 32.163C388.669 24.849 388.554 18.57 388.324 13.326H402.607V13.395H411.577C415.901 13.395 419.282 13.763 421.72 14.499C424.204 15.189 425.952 16.201 426.964 17.535C427.976 18.869 428.482 20.571 428.482 22.641C428.482 27.287 425.239 30.507 418.753 32.301ZM402.607 22.848V27.678H407.851C409.967 27.678 411.462 27.494 412.336 27.126C413.21 26.712 413.647 25.999 413.647 24.987C413.647 24.205 413.187 23.653 412.267 23.331C411.393 23.009 409.921 22.848 407.851 22.848H402.607ZM407.851 41.478C410.473 41.478 412.267 41.294 413.233 40.926C414.199 40.512 414.682 39.799 414.682 38.787C414.682 37.913 414.176 37.269 413.164 36.855C412.152 36.441 410.381 36.234 407.851 36.234H402.607V41.478H407.851ZM457.576 51.69C449.71 51.69 443.914 49.896 440.188 46.308C436.508 42.674 434.668 37.913 434.668 32.025C434.668 26.275 436.508 21.606 440.188 18.018C443.914 14.43 449.71 12.636 457.576 12.636C462.866 12.636 467.282 13.51 470.824 15.258C474.412 16.96 477.057 19.283 478.759 22.227C480.461 25.125 481.312 28.391 481.312 32.025C481.312 37.959 479.334 42.72 475.378 46.308C471.468 49.896 465.534 51.69 457.576 51.69ZM457.852 39.96C460.842 39.96 463.073 39.247 464.545 37.821C466.017 36.395 466.753 34.486 466.753 32.094C466.753 29.84 466.017 28 464.545 26.574C463.073 25.102 460.842 24.366 457.852 24.366C454.862 24.366 452.677 25.079 451.297 26.505C449.917 27.931 449.227 29.794 449.227 32.094C449.227 34.486 449.917 36.395 451.297 37.821C452.677 39.247 454.862 39.96 457.852 39.96ZM529.358 13.326C529.128 19.996 529.013 26.022 529.013 31.404C529.013 36.694 529.128 42.72 529.358 49.482H515.213L515.972 25.608L505.415 49.482H486.164C486.44 43.41 486.578 37.384 486.578 31.404C486.578 25.332 486.44 19.306 486.164 13.326H499.757L499.067 37.821L509.624 13.326H529.358ZM587.529 13.326L590.151 51H576.765L575.937 24.021L570.693 51H554.34L549.027 24.366L548.268 51H534.882L537.504 13.326H557.928L562.413 37.959L566.415 13.326H587.529ZM55.407 79.326L58.029 117H44.643L43.815 90.021L38.571 117H22.218L16.905 90.366L16.146 117H2.76L5.382 79.326H25.806L30.291 103.959L34.293 79.326H55.407ZM106.733 79.326C106.503 85.996 106.388 92.022 106.388 97.404C106.388 102.694 106.503 108.72 106.733 115.482H92.5883L93.3473 91.608L82.7903 115.482H63.5393C63.8153 109.41 63.9533 103.384 63.9533 97.404C63.9533 91.332 63.8153 85.306 63.5393 79.326H77.1323L76.4423 103.821L86.9993 79.326H106.733ZM142.41 78.636C145.4 78.636 148.091 79.487 150.483 81.189C152.875 82.891 154.738 85.214 156.072 88.158C157.406 91.056 158.073 94.253 158.073 97.749C158.073 101.199 157.406 104.465 156.072 107.547C154.738 110.583 152.852 113.044 150.414 114.93C148.022 116.77 145.285 117.69 142.203 117.69C138.615 117.69 135.533 116.954 132.957 115.482C130.427 113.964 128.541 111.641 127.299 108.513C127.299 111.135 127.391 115.344 127.575 121.14C127.759 126.752 127.851 130.708 127.851 133.008H112.257C112.533 124.452 112.671 115.505 112.671 106.167C112.671 96.829 112.533 87.882 112.257 79.326H125.505L127.506 87.951C128.794 84.731 130.726 82.385 133.302 80.913C135.878 79.395 138.914 78.636 142.41 78.636ZM135.027 105.27C137.097 105.27 138.822 104.626 140.202 103.338C141.628 102.004 142.341 100.279 142.341 98.163C142.341 95.817 141.697 93.908 140.409 92.436C139.121 90.964 137.373 90.228 135.165 90.228C132.635 90.228 130.726 90.849 129.438 92.091C128.15 93.287 127.506 95.311 127.506 98.163C127.506 99.773 127.92 101.13 128.748 102.234C129.576 103.292 130.565 104.074 131.715 104.58C132.865 105.04 133.969 105.27 135.027 105.27ZM185.147 117.69C177.281 117.69 171.485 115.896 167.759 112.308C164.079 108.674 162.239 103.913 162.239 98.025C162.239 92.275 164.079 87.606 167.759 84.018C171.485 80.43 177.281 78.636 185.147 78.636C190.437 78.636 194.853 79.51 198.395 81.258C201.983 82.96 204.628 85.283 206.33 88.227C208.032 91.125 208.883 94.391 208.883 98.025C208.883 103.959 206.905 108.72 202.949 112.308C199.039 115.896 193.105 117.69 185.147 117.69ZM185.423 105.96C188.413 105.96 190.644 105.247 192.116 103.821C193.588 102.395 194.324 100.486 194.324 98.094C194.324 95.84 193.588 94 192.116 92.574C190.644 91.102 188.413 90.366 185.423 90.366C182.433 90.366 180.248 91.079 178.868 92.505C177.488 93.931 176.798 95.794 176.798 98.094C176.798 100.486 177.488 102.395 178.868 103.821C180.248 105.247 182.433 105.96 185.423 105.96ZM266.383 79.326L269.005 117H255.619L254.791 90.021L249.547 117H233.194L227.881 90.366L227.122 117H213.736L216.358 79.326H236.782L241.267 103.959L245.269 79.326H266.383Z" fill="white"/>
<path d="M329.935 79.326C329.705 84.478 329.59 90.734 329.59 98.094C329.59 105.408 329.705 111.664 329.935 116.862H314.824L314.962 109.341C311.466 111.411 307.694 112.446 303.646 112.446C298.356 112.446 294.515 110.905 292.123 107.823C289.777 104.695 288.604 100.624 288.604 95.61V91.125C288.604 85.743 288.512 81.81 288.328 79.326H302.68C302.45 84.984 302.335 89.722 302.335 93.54C302.335 96.116 302.818 98.002 303.784 99.198C304.796 100.348 306.406 100.923 308.614 100.923C309.718 100.923 310.822 100.67 311.926 100.164C313.076 99.612 314.111 98.899 315.031 98.025C315.031 88.227 314.962 81.994 314.824 79.326H329.935ZM371.93 99.75H349.436C349.804 101.774 350.701 103.43 352.127 104.718C353.599 105.96 355.669 106.581 358.337 106.581C360.269 106.581 362.086 106.213 363.788 105.477C365.49 104.695 366.847 103.614 367.859 102.234C370.941 103.752 375.035 105.385 380.141 107.133C378.715 110.353 376.116 112.929 372.344 114.861C368.618 116.747 363.742 117.69 357.716 117.69C349.896 117.69 344.1 115.896 340.328 112.308C336.602 108.674 334.739 103.913 334.739 98.025C334.739 92.275 336.602 87.606 340.328 84.018C344.054 80.43 349.85 78.636 357.716 78.636C362.408 78.636 366.479 79.418 369.929 80.982C373.379 82.546 376.024 84.731 377.864 87.537C379.704 90.297 380.624 93.471 380.624 97.059C380.624 98.255 380.578 99.152 380.486 99.75H371.93ZM358.682 89.055C356.382 89.055 354.496 89.492 353.024 90.366C351.552 91.24 350.517 92.436 349.919 93.954H366.203C365.651 92.482 364.754 91.309 363.512 90.435C362.27 89.515 360.66 89.055 358.682 89.055ZM415.58 78.636C418.57 78.636 421.261 79.487 423.653 81.189C426.045 82.891 427.908 85.214 429.242 88.158C430.576 91.056 431.243 94.253 431.243 97.749C431.243 101.199 430.576 104.465 429.242 107.547C427.908 110.583 426.022 113.044 423.584 114.93C421.192 116.77 418.455 117.69 415.373 117.69C411.785 117.69 408.703 116.954 406.127 115.482C403.597 113.964 401.711 111.641 400.469 108.513C400.469 111.135 400.561 115.344 400.745 121.14C400.929 126.752 401.021 130.708 401.021 133.008H385.427C385.703 124.452 385.841 115.505 385.841 106.167C385.841 96.829 385.703 87.882 385.427 79.326H398.675L400.676 87.951C401.964 84.731 403.896 82.385 406.472 80.913C409.048 79.395 412.084 78.636 415.58 78.636ZM408.197 105.27C410.267 105.27 411.992 104.626 413.372 103.338C414.798 102.004 415.511 100.279 415.511 98.163C415.511 95.817 414.867 93.908 413.579 92.436C412.291 90.964 410.543 90.228 408.335 90.228C405.805 90.228 403.896 90.849 402.608 92.091C401.32 93.287 400.676 95.311 400.676 98.163C400.676 99.773 401.09 101.13 401.918 102.234C402.746 103.292 403.735 104.074 404.885 104.58C406.035 105.04 407.139 105.27 408.197 105.27ZM472.6 99.75H450.106C450.474 101.774 451.371 103.43 452.797 104.718C454.269 105.96 456.339 106.581 459.007 106.581C460.939 106.581 462.756 106.213 464.458 105.477C466.16 104.695 467.517 103.614 468.529 102.234C471.611 103.752 475.705 105.385 480.811 107.133C479.385 110.353 476.786 112.929 473.014 114.861C469.288 116.747 464.412 117.69 458.386 117.69C450.566 117.69 444.77 115.896 440.998 112.308C437.272 108.674 435.409 103.913 435.409 98.025C435.409 92.275 437.272 87.606 440.998 84.018C444.724 80.43 450.52 78.636 458.386 78.636C463.078 78.636 467.149 79.418 470.599 80.982C474.049 82.546 476.694 84.731 478.534 87.537C480.374 90.297 481.294 93.471 481.294 97.059C481.294 98.255 481.248 99.152 481.156 99.75H472.6ZM459.352 89.055C457.052 89.055 455.166 89.492 453.694 90.366C452.222 91.24 451.187 92.436 450.589 93.954H466.873C466.321 92.482 465.424 91.309 464.182 90.435C462.94 89.515 461.33 89.055 459.352 89.055ZM516.388 97.68C516.848 97.634 517.492 97.611 518.32 97.611C521.402 97.611 523.656 98.324 525.082 99.75C526.554 101.176 527.29 102.855 527.29 104.787C527.29 108.881 525.427 112.055 521.701 114.309C517.975 116.563 513.191 117.69 507.349 117.69C502.243 117.69 497.735 116.816 493.825 115.068C489.961 113.32 487.155 110.376 485.407 106.236L488.374 105.477C492.652 104.419 495.826 103.407 497.896 102.441C498.632 103.867 499.667 104.971 501.001 105.753C502.335 106.489 504.106 106.857 506.314 106.857C508.798 106.857 510.684 106.627 511.972 106.167C513.306 105.707 513.973 104.948 513.973 103.89C513.973 103.062 513.237 102.487 511.765 102.165C510.293 101.843 508.177 101.682 505.417 101.682H501.484V92.574H503.83C506.36 92.574 508.384 92.459 509.902 92.229C511.42 91.999 512.179 91.493 512.179 90.711C512.179 89.929 511.742 89.308 510.868 88.848C509.994 88.388 508.821 88.158 507.349 88.158C504.957 88.158 503.071 88.595 501.691 89.469C500.357 90.343 499.092 91.769 497.896 93.747C494.262 92.229 490.283 91.148 485.959 90.504C489.501 82.638 496.861 78.705 508.039 78.705C511.305 78.705 514.295 79.188 517.009 80.154C519.723 81.074 521.862 82.362 523.426 84.018C524.99 85.628 525.772 87.445 525.772 89.469C525.772 93.885 522.644 96.622 516.388 97.68ZM53.82 164.025C53.82 169.039 52.233 173.248 49.059 176.652C45.931 180.056 41.193 182.241 34.845 183.207C34.845 190.475 34.891 195.742 34.983 199.008H20.631L20.769 183.276C14.375 182.356 9.66 180.194 6.624 176.79C3.588 173.34 2.07 169.085 2.07 164.025C2.07 159.103 3.565 154.94 6.555 151.536C9.591 148.132 14.306 145.993 20.7 145.119L20.631 138.357H34.983L34.914 145.188C41.17 146.2 45.885 148.408 49.059 151.812C52.233 155.216 53.82 159.287 53.82 164.025ZM15.87 164.094C15.87 167.774 17.526 170.327 20.838 171.753V167.889C20.838 162.875 20.815 159.126 20.769 156.642C17.503 158.068 15.87 160.552 15.87 164.094ZM34.845 171.753C36.593 171.017 37.881 169.982 38.709 168.648C39.583 167.314 40.02 165.796 40.02 164.094C40.02 162.484 39.606 161.035 38.778 159.747C37.95 158.413 36.685 157.378 34.983 156.642C34.983 161.702 34.96 165.451 34.914 167.889C34.914 169.591 34.891 170.879 34.845 171.753ZM80.8384 183.69C72.9724 183.69 67.1764 181.896 63.4504 178.308C59.7704 174.674 57.9304 169.913 57.9304 164.025C57.9304 158.275 59.7704 153.606 63.4504 150.018C67.1764 146.43 72.9724 144.636 80.8384 144.636C86.1284 144.636 90.5444 145.51 94.0864 147.258C97.6744 148.96 100.319 151.283 102.021 154.227C103.723 157.125 104.574 160.391 104.574 164.025C104.574 169.959 102.596 174.72 98.6404 178.308C94.7304 181.896 88.7964 183.69 80.8384 183.69ZM81.1144 171.96C84.1044 171.96 86.3354 171.247 87.8074 169.821C89.2794 168.395 90.0154 166.486 90.0154 164.094C90.0154 161.84 89.2794 160 87.8074 158.574C86.3354 157.102 84.1044 156.366 81.1144 156.366C78.1244 156.366 75.9394 157.079 74.5594 158.505C73.1794 159.931 72.4894 161.794 72.4894 164.094C72.4894 166.486 73.1794 168.395 74.5594 169.821C75.9394 171.247 78.1244 171.96 81.1144 171.96ZM151.31 158.298C144.41 158.114 139.396 157.999 136.268 157.953V183H121.64V157.953C118.558 157.999 113.567 158.114 106.667 158.298V145.326H151.31V158.298ZM176.32 183.69C168.454 183.69 162.658 181.896 158.932 178.308C155.252 174.674 153.412 169.913 153.412 164.025C153.412 158.275 155.252 153.606 158.932 150.018C162.658 146.43 168.454 144.636 176.32 144.636C181.61 144.636 186.026 145.51 189.568 147.258C193.156 148.96 195.801 151.283 197.503 154.227C199.205 157.125 200.056 160.391 200.056 164.025C200.056 169.959 198.078 174.72 194.122 178.308C190.212 181.896 184.278 183.69 176.32 183.69ZM176.596 171.96C179.586 171.96 181.817 171.247 183.289 169.821C184.761 168.395 185.497 166.486 185.497 164.094C185.497 161.84 184.761 160 183.289 158.574C181.817 157.102 179.586 156.366 176.596 156.366C173.606 156.366 171.421 157.079 170.041 158.505C168.661 159.931 167.971 161.794 167.971 164.094C167.971 166.486 168.661 168.395 170.041 169.821C171.421 171.247 173.606 171.96 176.596 171.96ZM219.605 183H204.908C205.138 177.71 205.253 171.431 205.253 164.163C205.253 156.849 205.138 150.57 204.908 145.326H243.686C243.64 146.936 243.617 150.156 243.617 154.986V158.712H219.605V183ZM276.569 144.636C279.559 144.636 282.25 145.487 284.642 147.189C287.034 148.891 288.897 151.214 290.231 154.158C291.565 157.056 292.232 160.253 292.232 163.749C292.232 167.199 291.565 170.465 290.231 173.547C288.897 176.583 287.011 179.044 284.573 180.93C282.181 182.77 279.444 183.69 276.362 183.69C272.774 183.69 269.692 182.954 267.116 181.482C264.586 179.964 262.7 177.641 261.458 174.513C261.458 177.135 261.55 181.344 261.734 187.14C261.918 192.752 262.01 196.708 262.01 199.008H246.416C246.692 190.452 246.83 181.505 246.83 172.167C246.83 162.829 246.692 153.882 246.416 145.326H259.664L261.665 153.951C262.953 150.731 264.885 148.385 267.461 146.913C270.037 145.395 273.073 144.636 276.569 144.636ZM269.186 171.27C271.256 171.27 272.981 170.626 274.361 169.338C275.787 168.004 276.5 166.279 276.5 164.163C276.5 161.817 275.856 159.908 274.568 158.436C273.28 156.964 271.532 156.228 269.324 156.228C266.794 156.228 264.885 156.849 263.597 158.091C262.309 159.287 261.665 161.311 261.665 164.163C261.665 165.773 262.079 167.13 262.907 168.234C263.735 169.292 264.724 170.074 265.874 170.58C267.024 171.04 268.128 171.27 269.186 171.27ZM341.317 171.546C341.317 173.11 341.501 174.214 341.869 174.858C342.237 175.502 342.973 175.962 344.077 176.238L343.801 182.724C342.329 182.954 341.041 183.115 339.937 183.207C338.879 183.299 337.453 183.345 335.659 183.345C331.703 183.345 329.081 182.471 327.793 180.723C326.505 178.929 325.861 176.652 325.861 173.892V172.167C324.527 175.939 322.572 178.745 319.996 180.585C317.466 182.425 314.223 183.345 310.267 183.345C305.667 183.345 302.194 182.425 299.848 180.585C297.548 178.745 296.398 176.008 296.398 172.374C296.398 169.384 297.387 167.038 299.365 165.336C301.343 163.634 304.402 162.461 308.542 161.817C305.046 159.333 301.55 157.171 298.054 155.331C300.814 151.835 303.965 149.19 307.507 147.396C311.049 145.556 315.35 144.636 320.41 144.636C327.494 144.636 332.738 146.177 336.142 149.259C339.592 152.295 341.317 156.987 341.317 163.335V171.546ZM321.859 156.78C319.513 156.78 317.443 157.171 315.649 157.953C313.855 158.735 312.245 159.908 310.819 161.472C313.579 161.15 317.029 160.989 321.169 160.989C322.871 160.989 324.067 160.782 324.757 160.368C325.447 159.954 325.792 159.425 325.792 158.781C325.792 158.229 325.447 157.769 324.757 157.401C324.067 156.987 323.101 156.78 321.859 156.78ZM314.614 172.098C317.19 172.098 319.513 171.615 321.583 170.649C323.653 169.637 325.079 168.326 325.861 166.716V164.922C324.757 165.474 323.538 165.911 322.204 166.233C320.87 166.509 319.26 166.785 317.374 167.061L314.89 167.475C312.314 167.981 311.026 168.855 311.026 170.097C311.026 171.431 312.222 172.098 314.614 172.098ZM399.292 164.025C399.292 169.039 397.705 173.248 394.531 176.652C391.403 180.056 386.665 182.241 380.317 183.207C380.317 190.475 380.363 195.742 380.455 199.008H366.103L366.241 183.276C359.847 182.356 355.132 180.194 352.096 176.79C349.06 173.34 347.542 169.085 347.542 164.025C347.542 159.103 349.037 154.94 352.027 151.536C355.063 148.132 359.778 145.993 366.172 145.119L366.103 138.357H380.455L380.386 145.188C386.642 146.2 391.357 148.408 394.531 151.812C397.705 155.216 399.292 159.287 399.292 164.025ZM361.342 164.094C361.342 167.774 362.998 170.327 366.31 171.753V167.889C366.31 162.875 366.287 159.126 366.241 156.642C362.975 158.068 361.342 160.552 361.342 164.094ZM380.317 171.753C382.065 171.017 383.353 169.982 384.181 168.648C385.055 167.314 385.492 165.796 385.492 164.094C385.492 162.484 385.078 161.035 384.25 159.747C383.422 158.413 382.157 157.378 380.455 156.642C380.455 161.702 380.432 165.451 380.386 167.889C380.386 169.591 380.363 170.879 380.317 171.753ZM447.286 145.326C447.056 151.996 446.941 158.022 446.941 163.404C446.941 168.694 447.056 174.72 447.286 181.482H433.141L433.9 157.608L423.343 181.482H404.092C404.368 175.41 404.506 169.384 404.506 163.404C404.506 157.332 404.368 151.306 404.092 145.326H417.685L416.995 169.821L427.552 145.326H447.286ZM490.277 144.636C496.901 144.636 501.754 146.361 504.836 149.811C507.964 153.261 509.528 158.045 509.528 164.163C509.528 170.373 507.987 175.18 504.905 178.584C501.823 181.988 496.947 183.69 490.277 183.69C484.711 183.69 480.387 182.471 477.305 180.033C474.223 177.549 472.268 174.03 471.44 169.476H467.093V173.271C467.093 175.755 467.139 179.067 467.231 183.207H452.81C452.902 175.295 452.948 168.878 452.948 163.956C452.948 158.988 452.902 152.778 452.81 145.326H467.231C467.139 150.57 467.093 154.986 467.093 158.574H471.509C472.337 154.158 474.292 150.731 477.374 148.293C480.456 145.855 484.757 144.636 490.277 144.636ZM490.277 172.788C492.209 172.788 493.75 172.052 494.9 170.58C496.05 169.108 496.625 166.969 496.625 164.163C496.625 161.403 496.05 159.287 494.9 157.815C493.75 156.343 492.209 155.607 490.277 155.607C488.299 155.607 486.735 156.343 485.585 157.815C484.481 159.287 483.929 161.403 483.929 164.163C483.929 166.969 484.504 169.108 485.654 170.58C486.804 172.052 488.345 172.788 490.277 172.788Z" fill="#FF9315"/>
</svg>
