<svg width="60" height="60" viewBox="0 0 60 60" fill="none" xmlns="http://www.w3.org/2000/svg">
<g clip-path="url(#clip0_38_41)">
<path d="M30 0.9375C13.4314 0.9375 0 13.9492 0 30C0 46.0508 13.4314 59.0625 30 59.0625C46.5686 59.0625 60 46.0508 60 30C60 13.9492 46.5686 0.9375 30 0.9375ZM43.9055 20.7023C43.454 25.2979 41.5005 36.4498 40.5063 41.5969C40.0858 43.7747 39.2577 44.505 38.4561 44.5764C36.7142 44.7318 35.391 43.4611 33.7037 42.3895C31.0633 40.7128 29.5717 39.669 27.0086 38.0329C24.0467 36.142 25.9668 35.1032 27.6548 33.4039C28.0966 32.9595 35.7726 26.1957 35.9211 25.5821C35.9396 25.5054 35.9574 25.2189 35.7815 25.0684C35.6056 24.9179 35.3473 24.9689 35.1604 25.0098C34.8956 25.0681 30.6775 27.7689 22.5062 33.1124C21.309 33.9088 20.2246 34.2968 19.2529 34.2765C18.1817 34.2541 16.1213 33.6899 14.5894 33.2074C12.7107 32.6159 11.2175 32.3031 11.3475 31.2983C11.4152 30.7749 12.1592 30.2397 13.5794 29.6929C22.325 26.0016 28.1568 23.568 31.0747 22.3921C39.406 19.035 41.1371 18.4519 42.2655 18.4324C42.5137 18.4284 43.0686 18.488 43.428 18.7705C43.6671 18.9718 43.8195 19.2526 43.855 19.5575C43.9159 19.9361 43.9328 20.3201 43.9055 20.7023Z" fill="#E3E3E3"/>
</g>
<defs>
<clipPath id="clip0_38_41">
<rect width="60" height="60" fill="white"/>
</clipPath>
</defs>
</svg>
