<svg width="60" height="60" viewBox="0 0 60 60" fill="none" xmlns="http://www.w3.org/2000/svg">
<path d="M30 1.19995C14.094 1.19995 1.19995 14.094 1.19995 30C1.19995 45.906 14.094 58.8 30 58.8C45.906 58.8 58.8 45.906 58.8 30C58.8 14.094 45.906 1.19995 30 1.19995ZM41.076 33.693C41.076 33.693 43.623 36.207 44.25 37.374C44.268 37.398 44.277 37.422 44.283 37.434C44.538 37.863 44.598 38.196 44.472 38.445C44.262 38.859 43.542 39.063 43.296 39.081H38.796C38.484 39.081 37.83 39 37.038 38.454C36.429 38.028 35.829 37.329 35.244 36.648C34.371 35.634 33.615 34.758 32.853 34.758C32.7562 34.7578 32.66 34.773 32.568 34.803C31.992 34.989 31.254 35.811 31.254 38.001C31.254 38.685 30.714 39.078 30.333 39.078H28.272C27.57 39.078 23.913 38.832 20.673 35.415C16.707 31.23 13.137 22.836 13.107 22.758C12.882 22.215 13.347 21.924 13.854 21.924H18.399C19.005 21.924 19.203 22.293 19.341 22.62C19.503 23.001 20.097 24.516 21.072 26.22C22.653 28.998 23.622 30.126 24.399 30.126C24.5446 30.1242 24.6877 30.0872 24.816 30.018C25.83 29.454 25.641 25.839 25.596 25.089C25.596 24.948 25.593 23.472 25.074 22.764C24.702 22.251 24.069 22.056 23.685 21.984C23.8404 21.7695 24.0451 21.5956 24.282 21.477C24.978 21.129 26.232 21.078 27.477 21.078H28.17C29.52 21.096 29.868 21.183 30.357 21.306C31.347 21.543 31.368 22.182 31.281 24.369C31.254 24.99 31.227 25.692 31.227 26.52C31.227 26.7 31.218 26.892 31.218 27.096C31.188 28.209 31.152 29.472 31.938 29.991C32.0405 30.0552 32.1589 30.0895 32.28 30.09C32.553 30.09 33.375 30.09 35.601 26.271C36.2875 25.0417 36.884 23.7644 37.386 22.449C37.431 22.371 37.563 22.131 37.719 22.038C37.8341 21.9793 37.9617 21.9494 38.091 21.951H43.434C44.016 21.951 44.415 22.038 44.49 22.263C44.622 22.62 44.466 23.709 42.027 27.012L40.938 28.449C38.727 31.347 38.727 31.494 41.076 33.693Z" fill="#E3E3E3"/>
</svg>
